<svg width="16" height="16" viewBox="0 0 16 16" fill="none" xmlns="http://www.w3.org/2000/svg">
    <path d="M4.35733 15.2571C4.46518 15.3132 4.58626 15.3389 4.70759 15.3314C4.82892 15.3238 4.9459 15.2834 5.046 15.2144L13.7127 9.21444C13.8012 9.15309 13.8736 9.07118 13.9236 8.97575C13.9736 8.88031 13.9997 8.77418 13.9997 8.66644C13.9997 8.55871 13.9736 8.45258 13.9236 8.35714C13.8736 8.2617 13.8012 8.1798 13.7127 8.11844L5.046 2.11844C4.94598 2.04924 4.82894 2.00871 4.70754 2.00125C4.58615 1.9938 4.46502 2.01969 4.35729 2.07613C4.24955 2.13258 4.15931 2.21742 4.09633 2.32147C4.03335 2.42552 4.00004 2.54482 4 2.66644V14.6664C3.99998 14.7881 4.03327 14.9075 4.09626 15.0116C4.15925 15.1158 4.24953 15.2006 4.35733 15.2571Z"
          fill="url(#paint0_linear_14_24)"/>
    <defs>
        <linearGradient id="paint0_linear_14_24" x1="8.99984" y1="2" x2="8.99984" y2="15.3326"
                        gradientUnits="userSpaceOnUse">
            <stop stop-color="#E0AD6E"/>
            <stop offset="0.320833" stop-color="#FFFFAD"/>
            <stop offset="0.64375" stop-color="#DBAA68"/>
            <stop offset="1" stop-color="#92663F"/>
        </linearGradient>
    </defs>
</svg>
