<svg width="55" height="55" viewBox="0 0 55 55" fill="none" xmlns="http://www.w3.org/2000/svg">
    <path d="M55 27.5C55 12.3122 42.6878 0 27.5 0C12.3122 0 0 12.3122 0 27.5C0 42.6878 12.3122 55 27.5 55C42.6878 55 55 42.6878 55 27.5Z"
          fill="#7289DA"/>
    <path d="M25.0113 27.005C24.2275 27.005 23.6088 27.6925 23.6088 28.5312C23.6088 29.37 24.2413 30.0575 25.0113 30.0575C25.795 30.0575 26.4138 29.37 26.4138 28.5312C26.4275 27.6925 25.795 27.005 25.0113 27.005ZM30.03 27.005C29.2463 27.005 28.6275 27.6925 28.6275 28.5312C28.6275 29.37 29.26 30.0575 30.03 30.0575C30.8138 30.0575 31.4325 29.37 31.4325 28.5312C31.4325 27.6925 30.8138 27.005 30.03 27.005Z"
          fill="white"/>
    <path d="M36.7125 15.4688H18.2875C16.7337 15.4688 15.4688 16.7337 15.4688 18.3012V36.8913C15.4688 38.4588 16.7337 39.7237 18.2875 39.7237H33.88L33.1513 37.18L34.9112 38.8163L36.575 40.3563L39.5312 42.9688V18.3012C39.5312 16.7337 38.2663 15.4688 36.7125 15.4688ZM31.405 33.4263C31.405 33.4263 30.91 32.835 30.4975 32.3125C32.2987 31.8038 32.9862 30.6763 32.9862 30.6763C32.4225 31.0475 31.8862 31.3088 31.405 31.4875C30.7175 31.7763 30.0575 31.9688 29.4112 32.0788C28.0912 32.3263 26.8813 32.2575 25.85 32.065C25.0662 31.9137 24.3925 31.6938 23.8288 31.4737C23.5125 31.35 23.1688 31.1988 22.825 31.0063C22.7838 30.9788 22.7425 30.965 22.7013 30.9375C22.6737 30.9237 22.66 30.91 22.6462 30.8962C22.3987 30.7587 22.2613 30.6625 22.2613 30.6625C22.2613 30.6625 22.9213 31.7625 24.6675 32.285C24.255 32.8075 23.7463 33.4263 23.7463 33.4263C20.7075 33.33 19.5525 31.3362 19.5525 31.3362C19.5525 26.9087 21.5325 23.32 21.5325 23.32C23.5125 21.835 25.3962 21.8762 25.3962 21.8762L25.5337 22.0413C23.0587 22.7563 21.9175 23.8425 21.9175 23.8425C21.9175 23.8425 22.22 23.6775 22.7288 23.4438C24.2 22.7975 25.3688 22.6187 25.85 22.5775C25.9325 22.5637 26.0013 22.55 26.0837 22.55C26.9225 22.44 27.8712 22.4125 28.8612 22.5225C30.1675 22.6738 31.57 23.0588 33 23.8425C33 23.8425 31.9138 22.8112 29.5763 22.0962L29.7688 21.8762C29.7688 21.8762 31.6525 21.835 33.6325 23.32C33.6325 23.32 35.6125 26.9087 35.6125 31.3362C35.6125 31.3362 34.4438 33.33 31.405 33.4263Z"
          fill="white"/>
</svg>
