<svg width="55" height="55" viewBox="0 0 55 55" fill="none" xmlns="http://www.w3.org/2000/svg">
    <path d="M0 27.5C0 42.6878 12.3122 55 27.5 55C42.6878 55 55 42.6878 55 27.5C55 12.3122 42.6878 0 27.5 0C12.3122 0 0 12.3122 0 27.5Z"
          fill="white"/>
    <path d="M17.0156 20.9687C17.0156 20.625 16.8437 20.2812 16.6719 20.1094L14.0937 17.0156V16.5H22L28.1875 30.0781L33.6875 16.5H41.25V17.0156L39.0156 19.0781C38.8438 19.25 38.6719 19.4219 38.8438 19.7656V35.2344C38.8438 35.4063 38.8438 35.75 39.0156 35.9219L41.0781 37.9844V38.5H30.25V37.9844L32.4844 35.75C32.6562 35.5781 32.6562 35.4062 32.6562 35.0625V22.5156L26.4687 38.1563H25.7812L18.5625 22.5156V33C18.5625 33.5156 18.7344 33.8594 18.9062 34.2031L21.8281 37.6406V38.1563H13.75V37.6406L16.6719 34.2031C17.0156 33.8594 17.1875 33.5156 17.0156 33V20.9687Z"
          fill="black"/>
</svg>
