<svg width="55" height="55" viewBox="0 0 55 55" fill="none" xmlns="http://www.w3.org/2000/svg">
    <path d="M0 27.5C0 42.6878 12.3122 55 27.5 55C42.6878 55 55 42.6878 55 27.5C55 12.3122 42.6878 0 27.5 0C12.3122 0 0 12.3122 0 27.5Z"
          fill="#0088CC"/>
    <path d="M13.9217 26.9986C21.3037 23.7824 26.2262 21.6621 28.6891 20.6377C35.7214 17.7127 37.1826 17.2046 38.135 17.1877C38.3445 17.1842 38.8129 17.2361 39.1163 17.4822C39.3725 17.6901 39.443 17.9709 39.4767 18.168C39.5104 18.3651 39.5524 18.8141 39.519 19.1649C39.1379 23.1689 37.489 32.8857 36.6501 37.3703C36.2952 39.2679 35.5962 39.9042 34.9196 39.9664C33.4491 40.1017 32.3324 38.9946 30.9082 38.061C28.6795 36.6 27.4204 35.6906 25.2571 34.265C22.757 32.6175 24.3777 31.712 25.8025 30.2321C26.1754 29.8448 32.6545 23.9516 32.7799 23.417C32.7956 23.3501 32.8101 23.1009 32.6621 22.9693C32.514 22.8377 32.2955 22.8827 32.1378 22.9185C31.9142 22.9692 28.3539 25.3225 21.4567 29.9783C20.4461 30.6722 19.5307 31.0103 18.7106 30.9926C17.8064 30.9731 16.0673 30.4814 14.7743 30.0611C13.1885 29.5456 11.9282 29.2731 12.0379 28.3977C12.0951 27.9417 12.723 27.4753 13.9217 26.9986Z"
          fill="white"/>
</svg>
