<svg width="55" height="55" viewBox="0 0 55 55" fill="none" xmlns="http://www.w3.org/2000/svg">
    <path d="M0 27.5C0 42.6878 12.3122 55 27.5 55C42.6878 55 55 42.6878 55 27.5C55 12.3122 42.6878 0 27.5 0C12.3122 0 0 12.3122 0 27.5Z"
          fill="#1DA1F2"/>
    <path d="M41.25 18.9062C40.2187 19.4219 39.1875 19.5937 37.9844 19.7656C39.1875 19.0781 40.0469 18.0469 40.3906 16.6719C39.3594 17.3594 38.1562 17.7031 36.7812 18.0469C35.75 17.0156 34.2031 16.3281 32.6562 16.3281C29.0469 16.3281 26.2969 19.7656 27.1563 23.2031C22.5156 23.0312 18.3906 20.7969 15.4688 17.3594C13.9219 19.9375 14.7813 23.2031 17.1875 24.9219C16.3281 24.9219 15.4688 24.5781 14.6094 24.2344C14.6094 26.8125 16.5 29.2187 19.0781 29.9062C18.2188 30.0781 17.3594 30.25 16.5 30.0781C17.1875 32.3125 19.25 34.0312 21.8281 34.0312C19.7656 35.5781 16.6719 36.4375 13.75 36.0938C16.3281 37.6406 19.25 38.6719 22.3438 38.6719C32.8281 38.6719 38.6719 29.9062 38.3281 21.8281C39.5312 21.1406 40.5625 20.1094 41.25 18.9062Z"
          fill="white"/>
</svg>
